<svg width="35" height="35" viewBox="0 0 35 35" fill="none" xmlns="http://www.w3.org/2000/svg">
<path d="M34.6363 26.9172C33.3895 27.2344 32.6184 26.9309 31.9266 25.8918C30.3734 23.5648 28.659 21.3445 27.0047 19.0832C26.7914 18.7906 26.5699 18.5035 26.2938 18.1398C24.3359 20.7812 22.3809 23.2969 20.5461 25.9137C19.8898 26.8488 19.2008 27.2562 17.9758 26.9254L25.3367 17.0461L18.4844 8.12382C19.6629 7.89413 20.4777 8.01171 21.1996 9.06718C22.7937 11.3969 24.552 13.6144 26.3047 15.9605C28.0684 13.6226 29.8047 11.4023 31.4453 9.09452C32.1043 8.15937 32.8125 7.8039 33.9965 8.14843C33.0996 9.33788 32.2219 10.5082 31.3387 11.6703C30.1465 13.2371 28.9762 14.823 27.7402 16.357C27.3 16.9039 27.3711 17.2594 27.7648 17.7762C30.0508 20.7812 32.3094 23.8164 34.6363 26.9172ZM0.363672 16.882C0.560547 15.8949 0.691797 14.8887 0.965234 13.9207C2.60586 8.06093 9.33242 5.6246 13.9535 9.25585C16.6605 11.3859 17.3332 14.3883 17.1992 17.7734H1.94141C1.71172 23.8465 6.08399 27.5133 11.6566 25.643C13.6117 24.9867 14.7629 23.4555 15.3398 21.5414C15.6324 20.5816 16.1164 20.4312 17.0188 20.7047C16.5566 23.1 15.5094 25.1016 13.3219 26.3539C10.0406 28.2297 5.35664 27.6226 2.89297 25.0168C1.43828 23.4855 0.820313 21.5797 0.546875 19.5207C0.505859 19.1926 0.421094 18.8699 0.355469 18.5445C0.360937 17.9904 0.363672 17.4362 0.363672 16.882ZM1.96875 16.4746H15.7582C15.668 12.0832 12.9336 8.96328 9.1957 8.93593C5.09414 8.90312 2.14648 11.9492 1.96875 16.4746Z" fill="#C1B1FF"/>
</svg>
