<svg width="35" height="35" viewBox="0 0 35 35" fill="none" xmlns="http://www.w3.org/2000/svg">
<path d="M17.5 2.91675H12.3958C11.0421 2.91675 9.74386 3.45451 8.78665 4.41172C7.82943 5.36894 7.29167 6.66721 7.29167 8.02091C7.29167 9.37462 7.82943 10.6729 8.78665 11.6301C9.74386 12.5873 11.0421 13.1251 12.3958 13.1251H17.5M17.5 2.91675V13.1251M17.5 2.91675H22.6042C23.2745 2.91675 23.9382 3.04877 24.5575 3.30528C25.1767 3.56179 25.7394 3.93776 26.2134 4.41172C26.6873 4.88569 27.0633 5.44837 27.3198 6.06763C27.5763 6.6869 27.7083 7.35063 27.7083 8.02091C27.7083 8.6912 27.5763 9.35493 27.3198 9.97419C27.0633 10.5935 26.6873 11.1561 26.2134 11.6301C25.7394 12.1041 25.1767 12.48 24.5575 12.7365C23.9382 12.9931 23.2745 13.1251 22.6042 13.1251H17.5" stroke="#C1B1FF" stroke-width="2" stroke-linecap="round" stroke-linejoin="round"/>
<path d="M12.3958 23.3333C11.0421 23.3333 9.74386 23.8711 8.78665 24.8283C7.82943 25.7855 7.29167 27.0838 7.29167 28.4375C7.29167 29.7912 7.82943 31.0895 8.78665 32.0467C9.74386 33.0039 11.0421 33.5417 12.3958 33.5417C13.7495 33.5417 15.0478 33.0039 16.005 32.0467C16.9622 31.0895 17.5 29.7912 17.5 28.4375V23.3333M12.3958 23.3333H17.5M12.3958 23.3333C11.0421 23.3333 9.74386 22.7956 8.78665 21.8384C7.82943 20.8811 7.29167 19.5829 7.29167 18.2292C7.29167 16.8755 7.82943 15.5772 8.78665 14.62C9.74386 13.6628 11.0421 13.125 12.3958 13.125H17.5V23.3333M17.5 18.2292C17.5 17.5589 17.632 16.8952 17.8885 16.2759C18.145 15.6566 18.521 15.0939 18.995 14.62C19.4689 14.146 20.0316 13.77 20.6509 13.5135C21.2702 13.257 21.9339 13.125 22.6042 13.125C23.2745 13.125 23.9382 13.257 24.5575 13.5135C25.1767 13.77 25.7394 14.146 26.2134 14.62C26.6873 15.0939 27.0633 15.6566 27.3198 16.2759C27.5763 16.8952 27.7083 17.5589 27.7083 18.2292C27.7083 18.8995 27.5763 19.5632 27.3198 20.1824C27.0633 20.8017 26.6873 21.3644 26.2134 21.8384C25.7394 22.3123 25.1767 22.6883 24.5575 22.9448C23.9382 23.2013 23.2745 23.3333 22.6042 23.3333C21.9339 23.3333 21.2702 23.2013 20.6509 22.9448C20.0316 22.6883 19.4689 22.3123 18.995 21.8384C18.521 21.3644 18.145 20.8017 17.8885 20.1824C17.632 19.5632 17.5 18.8995 17.5 18.2292Z" stroke="#C1B1FF" stroke-width="2" stroke-linecap="round" stroke-linejoin="round"/>
</svg>
