<svg width="35" height="35" viewBox="0 0 35 35" fill="none" xmlns="http://www.w3.org/2000/svg">
<path d="M20.0375 6.16887C19.162 5.12541 18.3286 4.04733 17.5394 2.9372C17.5349 2.93088 17.529 2.92573 17.5222 2.92217C17.5153 2.91861 17.5077 2.91675 17.5 2.91675C17.4923 2.91675 17.4847 2.91861 17.4778 2.92217C17.471 2.92573 17.4651 2.93088 17.4606 2.9372C16.6714 4.04782 15.838 5.12639 14.9625 6.17033C4.44499 19.568 16.6221 28.6068 16.6221 28.6068L16.7198 28.6753C16.8131 30.0739 17.0421 32.0835 17.0421 32.0835H17.9579C17.9579 32.0835 18.1869 30.0826 18.2787 28.6855L18.3794 28.6068C18.3794 28.6068 30.555 19.568 20.0389 6.17033M17.5 28.4114C17.5 28.4114 16.9546 27.9447 16.8073 27.7114L16.8058 27.688L17.4664 13.1018C17.4681 13.0939 17.4724 13.0868 17.4786 13.0817C17.4849 13.0767 17.4927 13.0739 17.5007 13.0739C17.5088 13.0739 17.5166 13.0767 17.5228 13.0817C17.5291 13.0868 17.5334 13.0939 17.535 13.1018L18.1942 27.688V27.7128C18.0469 27.9462 17.5 28.4114 17.5 28.4114Z" fill="#C1B1FF"/>
</svg>
