<svg width="35" height="35" viewBox="0 0 35 35" fill="none" xmlns="http://www.w3.org/2000/svg">
<g clip-path="url(#clip0_562_54)">
<path d="M17.5 34.9359C17.0013 34.9359 16.5375 34.8061 16.1044 34.5815L11.6871 32.047C11.0236 31.694 11.3561 31.5657 11.5558 31.5015C12.4513 31.2128 12.6175 31.1486 13.5479 30.6338C13.6471 30.5697 13.7813 30.6017 13.8804 30.6659L17.2681 32.6245C17.3994 32.6886 17.5671 32.6886 17.6663 32.6245L30.9181 25.2103C31.0494 25.1461 31.1165 25.0178 31.1165 24.8574V10.0611C31.1165 9.90071 31.0508 9.77237 30.9181 9.70821L17.6663 2.32758C17.5336 2.26341 17.3673 2.26341 17.2681 2.32758L4.01626 9.70821C3.88355 9.77237 3.81647 9.93279 3.81647 10.0611V24.8574C3.81647 24.9857 3.88355 25.1461 4.01626 25.2103L7.63584 27.233C9.59584 28.1955 10.8238 27.0726 10.8238 25.9497V11.3459C10.8238 11.1534 10.99 10.9609 11.2233 10.9609H12.9165C13.1163 10.9609 13.3146 11.1213 13.3146 11.3459V25.9482C13.3146 28.4842 11.8869 29.9601 9.39605 29.9601C8.63188 29.9601 8.03397 29.9601 6.34084 29.158L2.85397 27.233C2.4341 27.0016 2.08347 26.6625 1.83818 26.2506C1.59288 25.8387 1.46177 25.3689 1.45834 24.8895V10.0932C1.45834 9.13071 1.98918 8.23237 2.85397 7.75112L16.1058 0.335499C16.5374 0.114824 17.0153 -0.000244141 17.5 -0.000244141C17.9848 -0.000244141 18.4626 0.114824 18.8942 0.335499L32.1475 7.74967C33.0108 8.23092 33.5417 9.12925 33.5417 10.0917V24.888C33.5417 25.8505 33.0108 26.7488 32.1475 27.2315L18.8956 34.6442C18.4552 34.8352 17.9801 34.9335 17.5 34.933M21.5848 24.7582C15.7733 24.7582 14.5775 22.1915 14.5775 20.0084C14.5775 19.8159 14.7438 19.6234 14.9756 19.6234H16.7023C16.9021 19.6234 17.0669 19.7517 17.0669 19.9442C17.3338 21.6447 18.0979 22.4788 21.6183 22.4788C24.4081 22.4788 25.604 21.8692 25.604 20.4255C25.604 19.5913 25.2715 18.9817 20.9213 18.5647C17.3002 18.2103 15.0427 17.4417 15.0427 14.649C15.0427 12.0488 17.3002 10.5074 21.0875 10.5074C25.3386 10.5074 27.4313 11.9205 27.6967 15.002C27.6934 15.1062 27.6583 15.207 27.5961 15.2907C27.5304 15.3549 27.4313 15.419 27.3306 15.419H25.604C25.5201 15.417 25.4392 15.3877 25.3734 15.3356C25.3076 15.2836 25.2606 15.2115 25.2394 15.1303C24.8398 13.3657 23.8102 12.7867 21.0875 12.7867C18.0308 12.7867 17.6663 13.8134 17.6663 14.5849C17.6663 15.5153 18.0979 15.804 22.2163 16.3174C26.3011 16.8307 28.2275 17.5686 28.2275 20.3278C28.194 23.154 25.8038 24.7582 21.5848 24.7582Z" fill="#C1B1FF"/>
</g>
<defs>
<clipPath id="clip0_562_54">
<rect width="35" height="35" fill="white"/>
</clipPath>
</defs>
</svg>
