<svg width="35" height="35" viewBox="0 0 35 35" fill="none" xmlns="http://www.w3.org/2000/svg">
<path d="M7.90854 4.43042C6.03604 4.43042 4.65208 6.06959 4.71479 7.84584C4.77313 9.55354 4.69583 11.7658 4.13875 13.5683C3.58021 15.3767 2.63667 16.5229 1.09375 16.6702V18.3298C2.63667 18.4771 3.58021 19.6233 4.13875 21.4317C4.69583 23.2356 4.77313 25.4465 4.71333 27.1542C4.65208 28.9304 6.03604 30.5696 7.91 30.5696H27.0929C28.9654 30.5696 30.3508 28.9304 30.2896 27.1542C30.2298 25.4465 30.3071 23.2356 30.8627 21.4317C31.4227 19.6233 32.3648 18.4771 33.9063 18.3298V16.6702C32.3633 16.5229 31.4227 15.3767 30.8627 13.5683C30.3071 11.7658 30.2298 9.55354 30.2896 7.84584C30.3508 6.06959 28.9654 4.43042 27.0929 4.43042H7.90854ZM23.3392 20.5202C23.3392 22.9673 21.5148 24.4519 18.4858 24.4519H13.3292C13.2561 24.4521 13.1837 24.4378 13.1161 24.41C13.0485 24.3822 12.9871 24.3413 12.9353 24.2897C12.8836 24.238 12.8425 24.1767 12.8145 24.1092C12.7865 24.0417 12.7721 23.9693 12.7721 23.8963V11.1038C12.7723 11.0308 12.7868 10.9586 12.8149 10.8912C12.843 10.8239 12.8841 10.7628 12.9359 10.7113C12.9876 10.6598 13.0489 10.6191 13.1164 10.5913C13.1839 10.5636 13.2562 10.5494 13.3292 10.5496H18.4552C20.981 10.5496 22.6392 11.916 22.6392 14.0175C22.6392 15.4904 21.5235 16.8117 20.1031 17.0421V17.1194C22.0369 17.3308 23.3392 18.671 23.3392 20.5202ZM17.9229 12.3113H14.9829V16.4646H17.4592C19.374 16.4646 20.4283 15.6931 20.4283 14.315C20.4283 13.0244 19.5213 12.3113 17.9229 12.3113ZM14.9829 18.111V22.6888H18.0308C20.0244 22.6888 21.0788 21.8881 21.0788 20.3846C21.0788 18.8825 19.9952 18.111 17.9025 18.111H14.9829Z" fill="#C1B1FF"/>
</svg>
