<svg width="35" height="35" viewBox="0 0 35 35" fill="none" xmlns="http://www.w3.org/2000/svg">
<g clip-path="url(#clip0_200_79)">
<path d="M34.3394 15.9403L19.0575 0.660563C18.8483 0.451223 18.5998 0.285159 18.3264 0.17186C18.053 0.0585599 17.7599 0.000244141 17.4639 0.000244141C17.1679 0.000244141 16.8748 0.0585599 16.6014 0.17186C16.328 0.285159 16.0795 0.451223 15.8703 0.660563L12.6984 3.83244L16.7234 7.85744C17.1981 7.69536 17.7088 7.67001 18.1972 7.78426C18.6857 7.89852 19.1321 8.14778 19.4857 8.50361C19.8392 8.85943 20.0856 9.30749 20.1967 9.79663C20.3078 10.2858 20.2792 10.7963 20.1141 11.2699L23.9925 15.1506C24.5663 14.9485 25.1918 14.9479 25.766 15.1488C26.3402 15.3497 26.8289 15.7402 27.1515 16.2559C27.4742 16.7716 27.6117 17.3818 27.5412 17.9861C27.4708 18.5903 27.1967 19.1526 26.7641 19.5803C26.3261 20.0209 25.7487 20.2958 25.1305 20.3581C24.5124 20.4203 23.8918 20.266 23.3748 19.9215C22.8577 19.577 22.4764 19.0637 22.2958 18.4692C22.1152 17.8747 22.1466 17.236 22.3847 16.6621L18.7687 13.044V22.5662C19.3184 22.8383 19.7581 23.2905 20.0148 23.8475C20.2714 24.4045 20.3294 25.0326 20.179 25.6272C20.0287 26.2217 19.6791 26.7468 19.1886 27.1149C18.698 27.4829 18.0962 27.6718 17.4833 27.6499C16.8704 27.628 16.2835 27.3967 15.8205 26.9946C15.3574 26.5925 15.0462 26.0438 14.9387 25.44C14.8311 24.8362 14.9338 24.2138 15.2295 23.6766C15.5252 23.1393 15.9961 22.7196 16.5637 22.4874V12.8778C16.2362 12.7436 15.9386 12.5459 15.6878 12.2961C15.4371 12.0463 15.2383 11.7494 15.1029 11.4224C14.9674 11.0954 14.8981 10.7448 14.8987 10.3909C14.8994 10.037 14.9702 9.6867 15.1069 9.36025L11.1409 5.39213L0.662806 15.8703C0.453466 16.0795 0.287403 16.3279 0.174103 16.6014C0.0608029 16.8748 0.00248718 17.1679 0.00248718 17.4638C0.00248718 17.7598 0.0608029 18.0529 0.174103 18.3263C0.287403 18.5998 0.453466 18.8482 0.662806 19.0574L15.9447 34.3393C16.1539 34.5487 16.4023 34.7147 16.6758 34.828C16.9492 34.9413 17.2423 34.9996 17.5383 34.9996C17.8343 34.9996 18.1273 34.9413 18.4008 34.828C18.6742 34.7147 18.9226 34.5487 19.1319 34.3393L34.3416 19.1296C34.5509 18.9204 34.717 18.672 34.8303 18.3985C34.9436 18.1251 35.0019 17.832 35.0019 17.536C35.0019 17.2401 34.9436 16.947 34.8303 16.6735C34.717 16.4001 34.5509 16.1517 34.3416 15.9424" fill="#C1B1FF"/>
</g>
<defs>
<clipPath id="clip0_200_79">
<rect width="35" height="35" fill="white"/>
</clipPath>
</defs>
</svg>
