<svg width="35" height="35" viewBox="0 0 35 35" fill="none" xmlns="http://www.w3.org/2000/svg">
<g clip-path="url(#clip0_313_64)">
<mask id="mask0_313_64" style="mask-type:luminance" maskUnits="userSpaceOnUse" x="0" y="0" width="35" height="35">
<path d="M0 0H35V35H0V0Z" fill="white"/>
</mask>
<g mask="url(#mask0_313_64)">
<path d="M16.3538 0.00893229C16.2779 0.016224 16.0388 0.0410156 15.8229 0.0570573C10.8529 0.506224 6.19792 3.1881 3.24625 7.31081C1.61627 9.57374 0.556675 12.1967 0.1575 14.9568C0.0175 15.9193 0 16.2023 0 17.506C0 18.8098 0.0175 19.0941 0.1575 20.0552C1.10833 26.6279 5.78667 32.1491 12.129 34.1952C13.265 34.5612 14.4623 34.8106 15.8229 34.9623C16.3538 35.0206 18.6462 35.0206 19.1771 34.9623C21.5265 34.7012 23.5185 34.1193 25.4815 33.1175C25.7833 32.9643 25.8417 32.9221 25.8008 32.8885C24.8407 31.6223 23.8903 30.3486 22.9498 29.0677L20.1513 25.2862L16.6454 20.096C15.4789 18.36 14.3015 16.6314 13.1133 14.9102C13.1002 14.9058 13.0871 17.2114 13.0798 20.0289C13.0696 24.9581 13.0652 25.1564 13.004 25.2731C12.9442 25.4093 12.8376 25.5195 12.7035 25.5837C12.5942 25.6391 12.4994 25.6493 11.9817 25.6493H11.3896L11.2321 25.5502C11.1346 25.4887 11.0555 25.402 11.0031 25.2993L10.9302 25.1462L10.9375 18.2862L10.9477 11.4233L11.0542 11.2891C11.1258 11.2053 11.2117 11.1347 11.3079 11.0806C11.4479 11.0121 11.5019 11.0062 12.0954 11.0062C12.7925 11.0062 12.9092 11.0325 13.09 11.2308C13.141 11.2862 15.0398 14.1475 17.3119 17.5921L24.2156 28.0512L26.9865 32.2483L27.1279 32.1564C28.4614 31.2699 29.6704 30.209 30.7227 29.0021C32.9279 26.4781 34.3584 23.3717 34.8425 20.0552C34.9825 19.0927 35 18.8098 35 17.506C35 16.2023 34.9825 15.9193 34.8425 14.9568C33.8917 8.3856 29.2133 2.86289 22.871 0.816849C21.6857 0.439971 20.4651 0.184424 19.2281 0.0541406C18.8985 0.0191406 16.6381 -0.018776 16.3552 0.0103906M23.52 10.5979C23.6013 10.6388 23.6737 10.6955 23.7331 10.7646C23.7924 10.8337 23.8374 10.9138 23.8656 11.0004C23.8919 11.0879 23.8992 12.991 23.8919 17.2785L23.8817 23.4298L22.7981 21.7673L21.7102 20.1048V15.6335C21.7102 12.7416 21.7233 11.1171 21.7438 11.0383C21.768 10.9472 21.8105 10.862 21.8687 10.7878C21.9268 10.7136 21.9994 10.652 22.0821 10.6066C22.2235 10.5337 22.2746 10.5279 22.8113 10.5279C23.3173 10.5279 23.4063 10.5352 23.52 10.5964" fill="#C1B1FF"/>
</g>
</g>
<defs>
<clipPath id="clip0_313_64">
<rect width="35" height="35" fill="white"/>
</clipPath>
</defs>
</svg>
