<svg width="35" height="35" viewBox="0 0 35 35" fill="none" xmlns="http://www.w3.org/2000/svg">
<path d="M17.5 8.02075C7.68688 8.02075 0 12.1843 0 17.4999C0 22.8155 7.68688 26.9791 17.5 26.9791C27.3131 26.9791 35 22.8155 35 17.4999C35 12.1843 27.3131 8.02075 17.5 8.02075ZM15.6829 10.9374H17.5933L16.9867 13.8541H18.6929C19.775 13.8541 20.5013 14.0058 20.9154 14.3835C21.3194 14.7568 21.4419 15.3693 21.28 16.2035L20.5217 19.6874H18.5792L19.2777 16.466C19.3623 16.0241 19.3288 15.7164 19.18 15.5545C19.0327 15.3926 18.7075 15.3124 18.2204 15.3124H16.6906L15.7675 19.6874H13.8542L15.6829 10.9374ZM7.29167 13.8541H11.1796C13.0331 13.8541 14.156 15.0966 13.7171 16.9501C13.2067 19.1041 11.8417 19.6874 9.3275 19.6874H8.12583L7.74521 21.8749H5.81292L7.29167 13.8541ZM22.6042 13.8541H26.4921C28.3456 13.8541 29.4685 15.0966 29.0296 16.9501C28.5192 19.1041 27.1527 19.6874 24.64 19.6874H23.4383L23.0577 21.8749H21.1254L22.6042 13.8541ZM8.94688 15.3124L8.39708 18.2291H9.64396C10.7231 18.2291 11.7265 18.1066 11.8942 16.498C11.9569 15.8739 11.6973 15.3124 10.4504 15.3124H8.94688ZM24.2594 15.3124L23.7096 18.2291H24.9565C26.0356 18.2291 27.039 18.1066 27.2067 16.498C27.2694 15.8739 27.0113 15.3124 25.7629 15.3124H24.2594Z" fill="#C1B1FF"/>
</svg>
