<svg width="35" height="35" viewBox="0 0 35 35" fill="none" xmlns="http://www.w3.org/2000/svg">
<path d="M19.6481 34.9255C19.192 34.8457 18.7195 34.6291 18.4516 34.3896C18.2697 34.1987 18.1659 33.9467 18.1606 33.683C18.1606 33.4151 18.2973 33.0388 18.5139 32.6637C18.6452 32.4526 18.748 32.2251 18.8213 31.9855C18.8672 31.8204 18.9634 31.5524 19.0378 31.3818L19.1691 31.069L19.203 28.9788C19.2205 27.8227 19.2544 26.752 19.2828 26.5857C19.3572 26.1066 19.4819 25.6396 19.647 25.1846L19.7728 24.8827L19.5902 24.7745C19.425 24.6716 19.2883 24.5295 18.7469 23.8852C18.0808 23.0988 17.2036 22.6657 15.9611 22.518C15.5564 22.4787 15.1463 22.4491 14.7361 22.4327C12.9128 22.3474 11.8705 21.9657 10.9309 21.0426C10.2298 20.3535 9.86563 19.5496 9.71797 18.3651C9.51891 16.7638 9.29688 15.9435 8.88672 15.2774C8.78563 15.1129 8.66917 14.9584 8.53891 14.8159L8.37375 14.6507L8.00953 14.8848C7.81047 15.016 7.53047 15.1812 7.39375 15.2555C6.93766 15.506 6.50453 15.7849 6.08891 16.0868C5.06953 16.8273 3.95828 17.7559 3.34907 18.3651C3.07563 18.6385 2.93344 18.7577 2.87 18.7468C2.45438 18.6845 2.77266 16.8841 3.45078 15.5279C4.31703 13.779 5.775 12.1668 7.46157 11.0785C8.84625 10.1838 11.0852 8.95336 12.1209 8.52023C13.9606 7.75133 16.3417 6.91898 17.9714 6.47492C18.3138 6.37758 18.5238 6.29227 18.6659 6.19602C18.9853 5.97398 19.2981 5.8657 19.6569 5.86023C19.9588 5.85477 19.9872 5.8493 20.2781 5.65461C20.6205 5.43258 20.7222 5.42055 21.0645 5.54086L21.2866 5.6207L21.56 5.43258L21.8334 5.24992L22.2261 5.25539C22.528 5.26086 22.6647 5.24992 22.7959 5.19305C22.9611 5.11867 22.9666 5.10773 23.0125 4.8343C23.1153 4.24148 23.1263 3.94508 23.0639 3.58633C22.9841 3.11383 22.9731 1.27961 23.053 0.919766C23.1383 0.532578 23.1952 0.452734 23.4861 0.310547C23.9192 0.0994531 24.2441 0.0371094 24.99 0.0371094C25.9011 0.0371094 26.3627 0.162891 26.705 0.493203C27.0123 0.789609 27.0638 1.48414 26.9041 3.11383C26.8067 4.05336 26.7958 4.31586 26.8242 4.93055C26.8352 5.3232 26.8636 5.69398 26.8756 5.74539C26.8986 5.84273 26.9216 5.8482 27.2519 5.85367C27.5767 5.85914 27.6336 5.87664 27.9409 6.03633C28.2373 6.19055 28.4594 6.37867 28.5053 6.51539C28.5108 6.54383 28.5622 6.54383 28.653 6.51539C28.8291 6.46398 28.9833 6.52086 29.1091 6.67508C29.1834 6.77242 29.2283 6.78883 29.4 6.78883C29.6341 6.78883 29.7194 6.8457 29.913 7.13117C30.0035 7.25929 30.1277 7.35996 30.2717 7.42211C30.5911 7.5818 31.0242 8.02586 31.1894 8.37914C31.4453 8.90305 31.4967 9.51226 31.337 10.0591C31.2802 10.2648 31.2802 10.2702 31.3994 10.4693C31.6498 10.897 31.7417 11.4209 31.6389 11.8649L31.582 12.1274L31.7527 12.298C32.6014 13.1468 32.4756 14.5315 31.4398 15.7674C31.3241 15.9086 31.2263 16.0636 31.1489 16.229C30.9498 16.7584 30.7213 17.1291 30.4259 17.4365L30.1241 17.7438H29.8167C29.5094 17.7438 29.0763 17.641 28.8138 17.5043C28.7055 17.4474 28.7 17.4474 28.723 17.5152C28.7919 17.7657 28.9625 18.7851 29.0194 19.3495C29.1102 20.2157 29.0817 21.4746 28.9625 22.016C28.8754 22.417 28.7294 22.8029 28.5294 23.1612C28.4156 23.3438 28.4102 23.3832 28.432 23.6052C28.4659 23.918 28.3927 24.443 28.2669 24.7898C28.1127 25.1945 28.0558 25.3826 28.0219 25.5871C27.9934 25.7632 27.9934 25.7632 28.1192 25.7632C28.2844 25.7632 28.3752 25.8605 28.3752 26.0541C28.3752 26.1395 28.3008 26.601 28.21 27.0735C27.9595 28.4013 27.942 28.549 27.942 29.8363C27.9366 31.1641 27.9366 31.1521 28.2384 31.3512L28.9166 31.7898C29.5 32.177 30.1247 32.498 30.7792 32.7468C31.7308 33.123 31.862 33.2193 31.862 33.5387C31.862 33.6809 31.8336 33.7323 31.7144 33.846C31.3502 34.1993 30.6316 34.2791 29.1845 34.1249C28.4326 34.0545 27.6779 34.0183 26.9227 34.0166C24.9288 33.9882 24.6378 33.9193 24.3764 33.4238C24.2288 33.1395 24.2572 32.7687 24.4617 32.1595C24.5525 31.8915 24.6323 31.618 24.7013 31.3391C24.838 30.6785 24.7472 29.8921 24.4278 29.004L24.1544 28.246C23.8864 27.4771 23.7388 26.0695 23.8984 25.7512C23.9269 25.6888 23.9783 25.6768 24.115 25.6823L24.2856 25.6998L24.4278 25.4034C24.5361 25.1693 24.6553 25.0162 24.9802 24.6913L25.3958 24.2757L25.3728 24.0077C25.3553 23.7518 25.0195 22.5093 24.9736 22.5148C24.9561 22.5148 24.8653 22.6405 24.7625 22.7991C24.512 23.1754 23.9597 23.7562 23.6458 23.9673C23.5091 24.058 23.3953 24.1663 23.3953 24.2013C23.3898 24.3555 23.2586 24.6574 23.0989 24.8674C22.9447 25.073 22.9338 25.107 22.9567 25.2885C22.9961 25.5565 22.9108 26.4162 22.8091 26.8668C22.7169 27.2014 22.5908 27.5257 22.4328 27.8348C22.0402 28.6496 21.7438 29.378 21.6694 29.7149C21.6157 30.0393 21.5813 30.3665 21.5666 30.6949C21.5491 31.0821 21.5097 31.4584 21.4813 31.5382C21.4419 31.6465 21.4419 31.7318 21.4758 31.897C21.5042 32.0162 21.5217 32.2841 21.5152 32.4952C21.5097 32.7862 21.5327 32.9743 21.618 33.3155C21.7656 33.8963 21.7941 34.2616 21.7263 34.4782C21.6803 34.6149 21.6355 34.6663 21.4813 34.7407C21.1389 34.9168 20.1709 35.0141 19.647 34.9234L19.6481 34.9255ZM21.0317 34.4585C21.2308 34.4016 21.4025 34.231 21.4025 34.0768C21.4025 34.0079 21.3456 33.8088 21.2767 33.6327C21.14 33.297 20.9059 32.4077 20.9059 32.2601C20.9059 32.1857 20.9114 32.1802 21.0252 32.2426L21.1509 32.3115V32.1518C21.1327 32.0046 21.1001 31.8595 21.0536 31.7187C20.9453 31.3938 20.9344 31.3884 20.2442 31.3479L19.7772 31.3249L19.6066 31.4901C19.5127 31.5866 19.4305 31.6938 19.3616 31.8095C19.2872 31.9571 19.2588 32.1802 19.3047 32.2305C19.3156 32.248 19.4305 32.2305 19.5552 32.2021C19.6292 32.1801 19.7055 32.1669 19.7827 32.1627C19.7827 32.1682 19.6569 32.271 19.4983 32.3793C18.8147 32.8923 18.5752 33.2051 18.5752 33.6043C18.5752 34.0199 18.9678 34.3448 19.5836 34.4421C20.0047 34.5045 20.825 34.522 21.0306 34.4596L21.0317 34.4585ZM30.3002 33.7804C30.4708 33.5748 30.4478 33.3648 30.2313 33.1252C30.1055 32.9995 29.9633 32.8912 29.8036 32.8059C29.6439 32.7205 29.4842 32.6232 29.3245 32.5215C29.0357 32.3343 28.739 32.1595 28.4353 31.9976C28.1728 31.8554 27.9169 31.7066 27.6664 31.548L27.5636 31.4682V29.902C27.5636 28.3587 27.5581 28.3357 27.4783 28.3587C27.0791 28.467 26.4184 28.5184 25.5817 28.5009L24.6761 28.4899L24.8073 28.8093C25.0523 29.413 25.1781 30.2224 25.1781 31.151C25.1781 31.4988 25.1552 31.6235 25.0698 31.8685C25.0239 31.9877 24.9845 32.108 24.9441 32.2273C24.9266 32.2787 24.99 32.318 25.223 32.387C25.3936 32.4384 25.6441 32.4898 25.7873 32.5062L26.0498 32.5346L26.0214 32.7971C25.993 33.0935 26.0269 33.4063 26.1013 33.5037C26.1472 33.5605 26.3178 33.5835 27.1097 33.6174C27.708 33.6459 28.3577 33.7082 28.8695 33.7826C29.3136 33.8515 29.7927 33.9084 29.9348 33.9084C30.1744 33.9138 30.1973 33.9029 30.2991 33.7826L30.3002 33.7804ZM21.1805 31.1149C21.2034 31.0974 21.2373 30.7901 21.2494 30.4259C21.2953 29.4065 21.3347 29.2577 21.8477 28.1071C22.2688 27.1676 22.4919 26.2904 22.4744 25.6691L22.4634 25.2984L22.3038 25.4526C21.9734 25.7829 22.2009 25.2645 22.5947 24.8029C22.8911 24.4496 22.9939 24.256 23.0388 23.9432C23.0617 23.8174 23.1077 23.7551 23.3013 23.6074C24.0256 23.0602 24.5837 22.3226 24.9134 21.4768C24.9933 21.2712 25.1978 20.5712 25.3695 19.9215C25.6889 18.7195 25.8595 18.201 26.0138 17.979C26.0706 17.8937 26.0936 17.8762 26.0827 17.933C26.0001 18.2385 25.9354 18.5486 25.8891 18.8616C25.8431 19.1405 25.7578 19.6874 25.7009 20.0691C25.5927 20.8501 25.4789 21.351 25.3247 21.7382L25.2219 22.0007L25.4953 22.7073C25.7797 23.4302 25.9109 23.9552 25.9339 24.4616L25.9514 24.746L25.7294 24.792C25.4363 24.8438 25.1748 25.0073 24.9998 25.248C24.8063 25.527 24.698 25.7555 24.7494 25.8059C24.7723 25.8288 25.0513 25.8802 25.3706 25.9196C25.8661 25.9765 26.0542 25.9765 26.7094 25.9371C26.9938 25.9262 27.2738 25.8977 27.5527 25.8573C27.615 25.8343 27.6784 25.7096 27.7802 25.3848C28.0142 24.6388 28.0591 24.3763 28.0306 23.8524L28.0077 23.3909L28.1269 23.2366C28.4058 22.8834 28.6223 22.2457 28.7131 21.4987C28.8214 20.5876 28.6223 18.679 28.2516 17.0384C28.0755 16.2574 28.0011 15.7904 28.0011 15.4491V15.1473L27.7222 15.1757C26.7192 15.284 25.5063 15.2555 24.7658 15.1013C24.3611 15.0215 23.3417 14.7196 23.1197 14.6223L22.9436 14.5424L22.9206 14.7415C22.9031 14.8498 22.8867 14.958 22.8638 15.0718C22.8298 15.191 22.8408 15.2195 23.0519 15.4251C23.3144 15.693 23.3942 15.8298 23.3942 16.0113C23.3942 16.1251 23.3319 16.217 23.0125 16.5473C22.7835 16.7916 22.5295 17.0112 22.2545 17.2024L21.8838 17.4529L21.7241 18.0052C21.1542 20.0276 21.0459 21.8673 21.4222 23.183L21.513 23.5134L21.3303 23.7409C20.6467 24.6005 20.242 25.2557 20.1797 25.621C20.1432 25.8009 20.1013 25.9796 20.0539 26.157C19.9063 26.7213 19.7914 27.5471 19.7411 28.4418C19.706 29.1908 19.6568 29.939 19.5934 30.6862L19.565 30.9082L19.8494 30.9935C20.0091 31.0449 20.2486 31.1018 20.3853 31.1248C20.6413 31.1641 21.1148 31.1532 21.1881 31.1138L21.1805 31.1149ZM26.7116 27.9813C27.1556 27.9529 27.5603 27.884 27.6402 27.8162C27.6741 27.7932 27.7145 27.674 27.7255 27.5537L27.7539 27.3371L27.4006 27.417C27.1217 27.4738 26.8428 27.5077 26.5628 27.5307C25.8902 27.5591 25.2131 27.5416 24.5459 27.4738C24.3239 27.4399 24.3239 27.4399 24.3917 27.7298C24.4486 27.9463 24.4606 27.9573 25.0414 27.9977C25.4286 28.0316 25.97 28.0262 26.7105 27.9802L26.7116 27.9813ZM26.3408 26.9904C26.9216 26.939 27.6456 26.8143 27.7878 26.7399C27.8338 26.717 27.8731 26.6316 27.8906 26.5343L27.942 26.2324L27.9705 26.0902L27.8283 26.1187C27.1961 26.2499 26.717 26.2893 25.76 26.2893C24.8259 26.2893 24.7177 26.2838 24.4727 26.1985C24.3785 26.1588 24.2783 26.1355 24.1763 26.1296C24.1369 26.1526 24.1303 26.4774 24.1653 26.7049C24.1883 26.8416 24.2113 26.8646 24.348 26.904C24.7811 27.0232 25.5106 27.0516 26.3419 26.9838L26.3408 26.9904ZM15.7686 21.852C17.2266 21.4309 19.1352 20.1938 20.6959 18.6451C21.2034 18.1376 21.2658 18.0698 21.3336 17.8423L21.4244 17.5513C21.4353 17.5284 21.3445 17.489 21.2253 17.4605C20.9125 17.3862 20.673 17.2046 20.673 17.0395C20.673 16.9421 20.6161 16.8459 20.4509 16.6687C20.183 16.3668 20.1152 16.2355 20.0867 15.9457L20.0638 15.7116L19.7444 15.4841C19.5617 15.3529 18.9241 14.9996 18.2459 14.6584C17.7296 14.4065 17.2242 14.1328 16.7311 13.838C16.1613 13.4563 15.7795 13.0002 15.563 12.4599C15.5236 12.3516 15.4722 12.2609 15.4547 12.2609C15.4088 12.2609 14.1269 13.4968 13.58 14.0776C12.2303 15.5016 11.3017 16.7376 10.7144 17.8827C10.5667 18.1671 10.407 18.504 10.3611 18.6287L10.2758 18.8562L10.3786 19.2379C10.4409 19.4435 10.5722 19.7793 10.675 19.9784C11.0338 20.6849 11.4614 21.1115 12.168 21.4593C12.9259 21.8355 13.5975 21.9668 14.7197 21.9493C15.3234 21.9438 15.5006 21.9263 15.7675 21.8465L15.7686 21.852ZM4.26125 16.8557C5.21828 16.007 6.53953 15.0784 8.15828 14.1159C9.21813 13.4837 13.3142 11.4329 15.1998 10.5951C15.5422 10.4409 15.8495 10.2987 15.8834 10.2823C15.9173 10.2593 16.0147 10.0143 16.1055 9.74086C16.5047 8.47648 16.7038 8.22602 17.4267 8.06086C17.5175 8.03789 17.5405 8.00945 17.5405 7.91867C17.5405 7.75352 17.6542 7.3718 17.7516 7.20117C17.8259 7.06992 17.8259 7.06445 17.7625 7.08195C17.7231 7.09289 17.4836 7.1618 17.2331 7.23617C13.7583 8.23914 10.722 9.57133 8.10141 11.2349C5.30469 13.0123 3.6925 15.1429 3.22547 17.6946L3.19157 17.8827L3.53391 17.547C3.71657 17.3588 4.04688 17.0515 4.26344 16.8634L4.26125 16.8557ZM30.0388 17.3402C30.3177 17.198 30.7508 16.5429 30.9105 16.0245C30.9564 15.8418 31.0472 15.6712 31.1784 15.529C31.5995 15.062 31.9473 14.2132 31.9528 13.6324C31.9528 12.7268 31.4398 12.379 30.6939 12.7662C30.5966 12.8121 30.5178 12.846 30.5058 12.8351C30.4664 12.7957 30.6764 12.5901 30.9334 12.4304C31.2692 12.2084 31.3327 12.0771 31.3327 11.6046C31.3376 11.2227 31.2241 10.8486 31.0078 10.5338C30.905 10.3796 30.8656 10.2779 30.882 10.2145L30.9848 9.83273C31.127 9.32523 31.0756 8.74445 30.8536 8.37477C30.5233 7.81695 30.1186 7.54352 29.5542 7.49758L29.2239 7.47461L29.4175 7.69117C29.9928 8.31242 30.2717 9.09227 30.158 9.75945C30.1011 10.1018 30.0497 10.1696 29.7194 10.3009L29.5258 10.3807L29.5488 10.6432C29.5881 11.0709 29.5148 11.3837 29.2414 11.959C29.1047 12.2499 29.0019 12.5113 29.0139 12.5398C29.0478 12.6371 29.4241 12.8187 29.7205 12.893L30.0114 12.962L29.8288 13.0243C29.5892 13.0987 29.5378 13.207 29.5378 13.5996C29.5378 13.9584 29.5892 14.1071 29.8506 14.4998C29.9698 14.6704 30.0497 14.8476 30.0617 14.9493C30.0847 15.109 30.0792 15.1199 29.948 15.1659C29.7992 15.2076 29.6462 15.2326 29.4919 15.2402C28.9559 15.2741 28.9166 15.2916 28.677 15.5191C28.4605 15.7248 28.455 15.7357 28.455 15.9632C28.455 16.276 28.5742 16.9093 28.6486 16.9946C28.7459 17.0974 29.2863 17.3654 29.4973 17.4048C29.6794 17.4505 29.8719 17.4283 30.0388 17.3424V17.3402ZM22.1484 16.9137C22.4963 16.6402 22.7697 16.3668 22.9228 16.1327C23.0202 15.9905 23.0256 15.9621 22.9797 15.8418C22.8998 15.6591 22.3759 15.1866 22.085 15.0445C21.8911 14.9576 21.6861 14.8983 21.4758 14.8684L21.117 14.8224L20.895 14.5435C20.4334 13.9737 20.1775 13.5296 19.8122 12.6688C19.4928 11.9393 19.2139 11.5127 18.7698 11.0905C18.5872 10.9199 18.457 10.7777 18.468 10.7777C18.4909 10.7777 18.7075 10.886 18.958 11.0173C19.3736 11.2393 19.425 11.2568 19.6131 11.2284C20.2913 11.1485 20.8895 10.3687 21.1061 9.27492C21.1684 8.96758 21.2942 8.65367 21.4255 8.46555C21.4309 8.46008 21.6934 8.6307 22.0008 8.85273C22.7817 9.40508 22.9523 9.49039 23.3964 9.50789C23.6873 9.51883 23.8525 9.49695 24.3764 9.37117C25.4931 9.09773 26.7006 8.98945 27.4356 9.0868C27.8513 9.14367 28.4495 9.32633 28.8936 9.53633C29.3322 9.74195 29.4175 9.75289 29.5597 9.62711C29.6789 9.5243 29.6789 9.50789 29.6789 9.12617C29.6734 8.5618 29.4678 7.95258 29.155 7.58836C28.9953 7.40023 28.5458 7.09289 28.1006 6.85883C27.9424 6.77489 27.7849 6.68958 27.6281 6.60289C27.417 6.47711 27.1786 6.49461 26.5289 6.66523C25.7764 6.85883 25.5773 6.85883 24.7177 6.6368C23.9881 6.45414 23.9433 6.44867 23.2247 6.56242C22.843 6.6193 21.8859 6.58539 21.5666 6.50008C21.4069 6.45414 21.2472 6.4093 21.0941 6.35242C20.8152 6.24414 20.3306 6.22664 19.892 6.30648C19.0203 6.4607 18.3597 6.9332 18.1202 7.57633C17.9944 7.90117 18.0119 8.05539 18.177 8.15711C18.4395 8.32227 18.7863 8.77289 18.7863 8.94898C18.7863 8.95992 18.7009 8.88664 18.6036 8.78383C18.3586 8.52789 18.1366 8.41305 17.8741 8.41305C17.7042 8.41776 17.5391 8.46982 17.3972 8.56335C17.2554 8.65688 17.1425 8.78817 17.0713 8.94242C16.9946 9.14367 16.93 9.3493 16.8777 9.5582C16.718 10.139 16.5758 10.4474 16.2739 10.8576C16.0059 11.2284 15.9666 11.3935 16.0628 11.8091C16.3023 12.857 16.718 13.2791 18.4548 14.2646C19.3659 14.783 19.833 15.074 20.1753 15.3299C20.4378 15.5235 20.4433 15.5355 20.4203 15.6832C20.3689 16.0255 20.5855 16.3952 21.0131 16.6971C21.1214 16.7715 21.1892 16.8513 21.1892 16.9082C21.1892 17.011 21.4802 17.1532 21.6902 17.1532C21.8094 17.1532 21.9013 17.1018 22.1463 16.9137H22.1484ZM29.1725 14.993C29.8331 15.016 29.867 14.9646 29.5148 14.5545C29.1441 14.1268 29.0423 13.7801 29.1791 13.3984L29.2359 13.2507L29.0019 13.137C28.922 13.0976 28.8422 13.0571 28.7623 13.0287C28.723 13.1829 28.6825 13.3305 28.6486 13.4848C28.5633 13.8326 28.4605 14.7327 28.455 15.1145C28.455 15.1484 28.5119 15.1374 28.6092 15.0751C28.7459 14.9952 28.8148 14.9843 29.1736 14.9952L29.1725 14.993ZM26.9566 14.9591C27.3558 14.9362 27.7659 14.9077 27.8742 14.8902L28.0733 14.8618L28.0963 14.2066C28.1302 13.2726 28.2669 12.7202 28.6716 11.8365C28.9559 11.2098 29.0817 10.6629 29.0194 10.2527C28.9964 10.0766 28.9855 10.0646 28.7459 9.9618C28.3073 9.78763 27.8506 9.66326 27.3842 9.59102C26.9347 9.52867 25.6123 9.56258 25.1169 9.65992C24.9113 9.69383 24.5361 9.77367 24.2856 9.83602C23.6644 9.9782 23.3341 9.9618 22.8616 9.75617C22.3945 9.55055 22.0981 9.36352 21.8192 9.10102C21.5972 8.89539 21.5742 8.88445 21.5173 8.95336C21.4714 9.00477 21.4484 9.15898 21.432 9.4893C21.4145 9.9968 21.3347 10.2637 21.1127 10.6224C21.0633 10.6962 21.0212 10.7746 20.9869 10.8565C20.9869 10.874 21.1575 11.073 21.3686 11.2896C22.0981 12.0476 22.4569 12.2412 23.0322 12.2007C23.2203 12.1832 23.3516 12.1898 23.3516 12.2116C23.3516 12.2576 22.9808 12.5474 22.8277 12.6273C22.7533 12.6666 22.7369 12.7071 22.7478 12.7924L22.8386 13.3907C22.89 13.733 22.9294 13.8916 22.9808 13.9376C23.1175 14.0513 23.8241 14.4166 24.2681 14.5982C24.8489 14.8323 25.1683 14.9176 25.6123 14.957C26.1592 15.0029 26.1702 15.0029 26.9566 14.957V14.9591ZM22.2458 14.3324C22.2567 14.3149 22.2173 13.9846 22.143 13.6029C22.0522 13.0845 22.0008 12.8963 21.9439 12.8449C21.9045 12.811 21.6934 12.6623 21.4823 12.5091C21.205 12.3097 20.9422 12.0908 20.6959 11.854L20.3033 11.4668L20.0922 11.5751L19.8702 11.6943C19.8888 11.7833 19.9194 11.8694 19.9609 11.9502C20.0233 12.087 20.1491 12.4227 20.2398 12.6962C20.4794 13.4082 20.6675 13.7505 21.14 14.3707L21.3161 14.6048L21.6519 14.6562C21.84 14.6846 22.0281 14.7251 22.0795 14.7415C22.1594 14.7754 22.1703 14.759 22.1933 14.5763C22.2042 14.4965 22.2217 14.4112 22.2447 14.3313L22.2458 14.3324ZM29.4634 7.24602C29.7544 7.21758 29.8058 7.17711 29.68 7.04695C29.6002 6.96711 29.4175 6.96164 29.2698 7.02945C29.1725 7.07539 29.1506 7.06336 28.9964 6.8982C28.8367 6.72211 28.8258 6.71555 28.6256 6.73852C28.443 6.76148 28.4145 6.75602 28.3916 6.68164C28.3204 6.55947 28.232 6.44822 28.1291 6.35133C27.9997 6.20432 27.8379 6.08937 27.6566 6.01555C27.3033 5.87883 27.1042 5.89633 26.7673 6.08445C25.7928 6.61383 25.8333 6.60836 24.8927 6.36883C24.0155 6.1468 23.3603 5.9193 23.1492 5.77602C22.9731 5.6568 22.5969 5.52555 22.283 5.48508C22.0489 5.45117 21.9013 5.50258 21.6792 5.68414L21.56 5.78148L21.6683 5.96961C21.8159 6.23211 21.7995 6.24852 21.5775 6.05492C21.338 5.85586 21.0536 5.71914 20.8709 5.71258C20.7397 5.71258 20.3525 5.8832 20.3066 5.95758C20.2891 5.98055 20.4094 6.00898 20.5691 6.01992C20.7342 6.03742 20.9617 6.0943 21.1159 6.15664C21.5152 6.32727 21.7197 6.38414 22.0839 6.41914C22.4831 6.45852 23.2061 6.41367 23.2914 6.34477C23.3373 6.30539 23.462 6.29883 23.7245 6.3218C24.0723 6.34477 24.2145 6.37867 25.0403 6.6007C25.5194 6.73195 25.8552 6.71992 26.425 6.5668C26.6875 6.49242 27.0178 6.41914 27.1545 6.40164C27.3886 6.37867 27.4334 6.3907 27.7988 6.55586C28.3795 6.81836 28.688 6.98352 28.8586 7.13664C29.0292 7.2843 29.0522 7.2843 29.4623 7.25039L29.4634 7.24602ZM26.2161 6.24961L26.5639 6.06695L26.553 5.71367C26.5475 5.46867 26.5355 5.22914 26.5245 4.9907L26.4961 4.62648L26.1483 4.89445C25.9427 5.05414 25.7436 5.17336 25.6583 5.19086C25.4078 5.2368 24.1719 5.19086 24.057 5.12852C23.904 5.0155 23.761 4.88962 23.6294 4.75227L23.31 4.42742L23.3045 4.62102C23.3045 4.72383 23.2936 4.89992 23.2706 5.0082C23.2422 5.21383 23.2422 5.2193 23.4642 5.4982C23.5834 5.65242 23.6808 5.78914 23.6808 5.80555C23.6808 5.91383 25.3269 6.4268 25.6977 6.43227C25.8169 6.43227 25.9656 6.38086 26.2161 6.24961ZM25.5555 4.9557C25.9656 4.87586 26.1647 4.57945 26.3189 3.82805C26.4786 3.01867 26.5584 1.74883 26.4841 1.20742C26.4152 0.717422 25.8683 0.500859 24.8259 0.534766C24.1763 0.557734 23.9083 0.620078 23.6863 0.808203C23.5495 0.921953 23.5495 0.933984 23.4872 1.4743C23.3734 2.51117 23.5441 3.98664 23.8405 4.53898C23.9827 4.80695 24.1084 4.9032 24.3698 4.94914C24.6663 5.00055 25.2984 5.00055 25.5544 4.95461L25.5555 4.9557Z" fill="#C1B1FF"/>
</svg>
