<svg width="35" height="35" viewBox="0 0 35 35" fill="none" xmlns="http://www.w3.org/2000/svg">
<path d="M17.5 14.7437C19.0021 14.7437 20.2271 15.9687 20.2271 17.4999C20.2271 18.9583 19.0021 20.1979 17.5 20.1979C15.9979 20.1979 14.7729 18.9583 14.7729 17.4999C14.7729 15.9687 15.9979 14.7437 17.5 14.7437ZM10.7479 29.1666C11.6667 29.7208 13.6792 28.8749 15.9979 26.6874C15.2396 25.827 14.4958 24.8937 13.7958 23.9166C12.6207 23.8033 11.4524 23.6281 10.2958 23.3916C9.55208 26.5124 9.82917 28.6562 10.7479 29.1666ZM11.7833 20.7958L11.3604 20.052C11.2 20.4749 11.0396 20.8979 10.9375 21.3062C11.3312 21.3937 11.7687 21.4666 12.2208 21.5395L11.7833 20.7958ZM21.3208 19.6874L22.5021 17.4999L21.3208 15.3124C20.8833 14.5395 20.4167 13.8541 19.9937 13.1687C19.2062 13.1249 18.375 13.1249 17.5 13.1249C16.625 13.1249 15.7937 13.1249 15.0062 13.1687C14.5833 13.8541 14.1167 14.5395 13.6792 15.3124L12.4979 17.4999L13.6792 19.6874C14.1167 20.4604 14.5833 21.1458 15.0062 21.8312C15.7937 21.8749 16.625 21.8749 17.5 21.8749C18.375 21.8749 19.2062 21.8749 19.9937 21.8312C20.4167 21.1458 20.8833 20.4604 21.3208 19.6874ZM17.5 9.88744C17.2229 10.2083 16.9312 10.5437 16.6396 10.9374H18.3604C18.0687 10.5437 17.7771 10.2083 17.5 9.88744ZM17.5 25.1124C17.7771 24.7916 18.0687 24.4562 18.3604 24.0624H16.6396C16.9312 24.4562 17.2229 24.7916 17.5 25.1124ZM24.2375 5.83327C23.3333 5.2791 21.3208 6.12494 19.0021 8.31244C19.7604 9.17285 20.5042 10.1062 21.2042 11.0833C22.4 11.1999 23.5812 11.3749 24.7042 11.6083C25.4479 8.48744 25.1708 6.34369 24.2375 5.83327ZM23.2167 14.2041L23.6396 14.9479C23.8 14.5249 23.9604 14.102 24.0625 13.6937C23.6687 13.6062 23.2312 13.5333 22.7792 13.4604L23.2167 14.2041ZM25.3312 3.92285C27.475 5.14785 27.7083 8.37077 26.8042 12.1333C30.5083 13.227 33.1771 15.0354 33.1771 17.4999C33.1771 19.9645 30.5083 21.7729 26.8042 22.8666C27.7083 26.6291 27.475 29.852 25.3312 31.077C23.2021 32.302 20.3 30.902 17.5 28.2333C14.7 30.902 11.7979 32.302 9.65417 31.077C7.525 29.852 7.29167 26.6291 8.19583 22.8666C4.49167 21.7729 1.82292 19.9645 1.82292 17.4999C1.82292 15.0354 4.49167 13.227 8.19583 12.1333C7.29167 8.37077 7.525 5.14785 9.65417 3.92285C11.7979 2.69785 14.7 4.09785 17.5 6.7666C20.3 4.09785 23.2021 2.69785 25.3312 3.92285ZM24.9083 17.4999C25.4042 18.5937 25.8417 19.6874 26.2062 20.7958C29.2687 19.877 30.9896 18.5645 30.9896 17.4999C30.9896 16.4354 29.2687 15.1229 26.2062 14.2041C25.8417 15.3124 25.4042 16.4062 24.9083 17.4999ZM10.0917 17.4999C9.59583 16.4062 9.15833 15.3124 8.79375 14.2041C5.73125 15.1229 4.01042 16.4354 4.01042 17.4999C4.01042 18.5645 5.73125 19.877 8.79375 20.7958C9.15833 19.6874 9.59583 18.5937 10.0917 17.4999ZM23.2167 20.7958L22.7792 21.5395C23.2312 21.4666 23.6687 21.3937 24.0625 21.3062C23.9604 20.8979 23.8 20.4749 23.6396 20.052L23.2167 20.7958ZM19.0021 26.6874C21.3208 28.8749 23.3333 29.7208 24.2375 29.1666C25.1708 28.6562 25.4479 26.5124 24.7042 23.3916C23.5812 23.6249 22.4 23.7999 21.2042 23.9166C20.5042 24.8937 19.7604 25.827 19.0021 26.6874ZM11.7833 14.2041L12.2208 13.4604C11.7687 13.5333 11.3312 13.6062 10.9375 13.6937C11.0396 14.102 11.2 14.5249 11.3604 14.9479L11.7833 14.2041ZM15.9979 8.31244C13.6792 6.12494 11.6667 5.2791 10.7479 5.83327C9.82917 6.34369 9.55208 8.48744 10.2958 11.6083C11.4524 11.3718 12.6207 11.1966 13.7958 11.0833C14.4958 10.1062 15.2396 9.17285 15.9979 8.31244Z" fill="#C1B1FF"/>
</svg>
