<svg width="35" height="35" viewBox="0 0 35 35" fill="none" xmlns="http://www.w3.org/2000/svg">
<path d="M17.5 8.75C13.6063 8.75 11.1854 10.6896 10.2083 14.5833C11.6667 12.6438 13.3729 11.9146 15.3125 12.3958C16.4208 12.6729 17.2229 13.475 18.0979 14.3646C19.5271 15.8229 21.1458 17.5 24.7917 17.5C28.6854 17.5 31.1062 15.5604 32.0833 11.6667C30.625 13.6063 28.9187 14.3354 26.9792 13.8542C25.8708 13.5771 25.0833 12.775 24.1938 11.8854C22.7646 10.4271 21.1458 8.75 17.5 8.75ZM10.2083 17.5C6.31458 17.5 3.89375 19.4396 2.91667 23.3333C4.375 21.3938 6.08125 20.6646 8.02083 21.1458C9.12917 21.4229 9.91667 22.225 10.8063 23.1146C12.2354 24.5729 13.8542 26.25 17.5 26.25C21.3938 26.25 23.8146 24.3104 24.7917 20.4167C23.3333 22.3563 21.6271 23.0854 19.6875 22.6042C18.5792 22.3271 17.7917 21.525 16.9021 20.6354C15.4729 19.1771 13.8542 17.5 10.2083 17.5Z" fill="#C1B1FF"/>
</svg>
